:SAMPLES-PER-SECOND 30
:FRAME-RANGE 1-2091
:FULLY-SPECIFIED
:DEGREES
589
root  -3.03825 39.1221 -105.947 -178.893 10.8884 178.823
RightUpLeg  4.13216 -2.58598 3.09079
RightLeg  15.0646 11.1412 2.68768
RightFoot  -17.8343 -0.522165 -7.07168
RightToes  5.38607e-012 1.2921e-014 -6.02303e-014
Spine  -6.43771 1.72626 9.00121
Spine1  7.99157 2.45063 -5.27428
HEad  35.452 21.146 -4.48353
LeftShoulder1  0.269746 2.24641 -19.2018
LeftArm  -41.4471 -13.3419 -36.3382
LeftForeArm  -20.3728 -22.374 -5.6252
LeftHand  1.46173 11.8066 26.044
RightShoulder  2.00559 2.75167 27.1455
RightArm  -28.1238 1.42352 50.245
RightForeArm  63.6947 -5.3001 2.07915
RightHand  0.0876224 -6.19576 -15.075
LeftUpLeg  -21.787 -4.24228 -3.21036
LeftLeg  0.21803 8.34602 2.12225
LeftFoot  -1.96825 0.452494 -5.37419
LeftToes  -7.20997e-011 3.75522e-011 -2.80735e-011
590
root  -2.93438 38.9468 -107.031 -178.639 11.2373 178.886
RightUpLeg  5.48212 -1.94942 3.12867
RightLeg  15.4637 10.4563 2.57003
RightFoot  -18.9844 -0.631542 -7.52212
RightToes  5.38607e-012 1.2921e-014 -6.02303e-014
Spine  -6.81404 1.7177 8.49266
Spine1  8.13102 2.43412 -5.2465
HEad  35.1833 21.8403 -4.47377
LeftShoulder1  0.220794 2.42348 -18.7386
LeftArm  -41.1261 -13.8766 -35.7177
LeftForeArm  -18.3306 -25.258 -6.29139
LeftHand  0.845556 9.00021 26.7971
RightShoulder  1.99306 2.67974 27.3396
RightArm  -28.6768 0.84468 49.7237
RightForeArm  64.4348 -5.22314 1.78061
RightHand  0.102917 -6.32392 -14.9621
LeftUpLeg  -21.5107 -4.22014 -3.99602
LeftLeg  -3.86813 16.1087 1.06635
LeftFoot  -3.95303 0.442161 -6.47759
LeftToes  -7.20997e-011 3.75522e-011 -2.80735e-011
591
root  -2.81701 38.7044 -108.153 -178.454 11.0556 179.177
RightUpLeg  6.84447 -1.29508 3.53746
RightLeg  16.3297 9.06187 2.38553
RightFoot  -20.2161 -0.751034 -7.9031
RightToes  5.38607e-012 1.2921e-014 -6.02303e-014
Spine  -6.76929 1.5594 8.02616
Spine1  7.94565 2.20267 -4.93626
HEad  34.4218 22.2756 -4.4981
LeftShoulder1  0.203125 2.48914 -18.5792
LeftArm  -40.3672 -13.7046 -35.2432
LeftForeArm  -14.833 -27.5043 -6.66873
LeftHand  -0.247371 4.33214 26.8469
RightShoulder  1.95162 2.55151 27.3583
RightArm  -29.3138 0.12031 49.488
RightForeArm  64.6506 -5.15983 1.45247
RightHand  0.125548 -6.4747 -15.296
LeftUpLeg  -22.3708 -3.97601 -4.52544
LeftLeg  -2.14232 21.6354 1.02899
LeftFoot  -3.99436 0.354059 -5.14008
LeftToes  -7.20997e-011 3.75522e-011 -2.80735e-011
592
root  -2.63763 38.5014 -109.342 -178.528 10.8699 179.038
RightUpLeg  8.32069 -0.308909 3.57604
RightLeg  17.555 8.08842 2.42601
RightFoot  -21.2488 -0.79387 -7.48946
RightToes  5.38607e-012 1.2921e-014 -6.02303e-014
Spine  -6.91445 1.49958 6.88089
Spine1  8.28949 2.18209 -4.7233
HEad  33.2598 22.4139 -4.19724
LeftShoulder1  0.15667 2.67654 -18.6253
LeftArm  -38.7498 -13.0106 -35.0138
LeftForeArm  -12.8437 -29.4734 -7.06336
LeftHand  -0.0994481 4.9459 25.3278
RightShoulder  1.9551 2.47046 27.9035
RightArm  -29.642 -0.733435 48.9688
RightForeArm  64.6506 -5.13666 1.3157
RightHand  0.119137 -6.44136 -15.0937
LeftUpLeg  -22.435 -3.88048 -5.39288
LeftLeg  0.795652 25.9148 1.97546
LeftFoot  -1.98042 0.201368 -2.31435
LeftToes  -7.20997e-011 3.75522e-011 -2.80735e-011
593
root  -2.43037 38.4917 -110.55 -178.644 11.2798 178.293
RightUpLeg  9.63365 1.66405 3.19881
RightLeg  18.7169 6.82244 2.36341
RightFoot  -20.848 -0.677432 -6.44401
RightToes  5.38607e-012 1.2921e-014 -6.02303e-014
Spine  -7.06769 1.70729 5.34219
Spine1  8.74679 2.74479 -5.52332
HEad  32.6992 22.2124 -3.53879
LeftShoulder1  0.0543374 3.08741 -18.7783
LeftArm  -36.3001 -11.1087 -35.267
LeftForeArm  -12.0312 -31.3656 -7.51393
LeftHand  0.0105885 5.44034 26.1563
RightShoulder  1.96446 2.40475 28.4739
RightArm  -30.169 -1.90876 48.733
RightForeArm  64.6118 -5.09894 1.08505
RightHand  0.128539 -6.42959 -16.158
LeftUpLeg  -22.3289 -3.90343 -6.38481
LeftLeg  3.72192 27.4735 3.45501
LeftFoot  1.50718 -0.131006 1.08265
LeftToes  -7.20997e-011 3.75522e-011 -2.80735e-011
594
root  -2.22466 38.46 -111.859 -178.596 11.3482 177.331
RightUpLeg  9.44017 2.40077 2.16095
RightLeg  22.778 7.07829 3.04137
RightFoot  -20.1106 -0.519196 -4.9945
RightToes  5.38607e-012 1.2921e-014 -6.02303e-014
Spine  -7.54158 1.8039 3.65617
Spine1  8.77297 3.02957 -6.17122
HEad  32.8166 22.4189 -2.86036
LeftShoulder1  -0.0718209 3.5834 -19.3521
LeftArm  -33.6962 -8.24175 -35.3212
LeftForeArm  -11.5897 -31.7238 -7.58715
LeftHand  0.0681096 5.70762 25.3349
RightShoulder  1.94857 2.27847 28.9789
RightArm  -31.1884 -3.04342 48.9055
RightForeArm  65.4651 -4.9735 0.53025
RightHand  0.141815 -6.49909 -16.5014
LeftUpLeg  -21.6638 -4.31478 -7.4099
LeftLeg  4.96721 27.8713 4.25686
LeftFoot  5.85005 -0.385668 2.31593
LeftToes  -7.20997e-011 3.75522e-011 -2.80735e-011
595
root  -2.05479 38.5151 -113.12 -178.414 10.136 176.432
RightUpLeg  7.54185 1.79486 0.62429
RightLeg  29.4217 8.91124 5.17975
RightFoot  -17.539 -0.204291 -1.5827
RightToes  5.38607e-012 1.2921e-014 -6.02303e-014
Spine  -8.08472 1.51124 1.91139
Spine1  8.99154 2.82695 -6.56902
HEad  33.0931 22.3305 -2.53147
LeftShoulder1  -0.0862601 3.62965 -20.1949
LeftArm  -30.8499 -3.52027 -35.5211
LeftForeArm  -13.056 -31.973 -7.72731
LeftHand  0.433297 7.44926 24.3967
RightShoulder  1.86774 2.04062 29.0131
RightArm  -32.7995 -4.29055 49.5921
RightForeArm  66.8715 -4.76735 -0.371567
RightHand  0.175445 -6.75783 -16.2981
LeftUpLeg  -21.2252 -3.69736 -8.44446
LeftLeg  7.34877 25.8223 3.96588
LeftFoot  5.81783 -0.452319 2.76316
LeftToes  -7.20997e-011 3.75522e-011 -2.80735e-011
596
root  -1.97884 38.5781 -114.317 -178.174 8.46255 175.71
RightUpLeg  4.03094 -0.592052 -2.10977
RightLeg  38.4672 12.6619 10.3447
RightFoot  -12.9129 -0.0211388 4.84454
RightToes  5.38607e-012 1.2921e-014 -6.02303e-014
Spine  -8.30594 1.35538 0.997469
Spine1  9.24194 2.76291 -7.28429
HEad  33.3026 21.8279 -2.83736
LeftShoulder1  -0.0859462 3.58861 -20.9631
LeftArm  -28.1575 0.526817 -36.2697
LeftForeArm  -14.1656 -28.4457 -6.86882
LeftHand  0.201995 6.47543 22.1417
RightShoulder  1.78679 1.91026 28.3084
RightArm  -33.7164 -6.10863 50.4398
RightForeArm  66.7 -4.71396 -0.719884
RightHand  0.169671 -6.75827 -15.8559
LeftUpLeg  -20.4232 -4.12837 -9.89507
LeftLeg  9.07611 24.0154 4.33913
LeftFoot  4.47805 -0.562289 3.85003
LeftToes  -7.20997e-011 3.75522e-011 -2.80735e-011
